<?xml version="1.0" standalone="no"?>
<svg viewBox="-74.0 -74.0 1853.0 1210.4000244140625" style="background-color:#EDEDF2" version="1.1" xmlns="http://www.w3.org/2000/svg" xmlns:xlink="http://www.w3.org/1999/xlink" xml:space="preserve" x="0.0px" y="0.0px" width="1557.0" height="914.4000244140625">
<g transform="matrix(1.0, 0.0, 0.0, 1.0, 0.0, 0.0)"></g>
<g transform="matrix(1.0, 0.0, 0.0, 1.0, 0.0, 0.0)"><path d="M 934.0,493.45001220703125 L 934.0,493.45001220703125 C 860.0,493.45001220703125 823.0,725.4500122070312 750.0,725.4500122070312 L 655.0,725.4500122070312 " stroke="#64C8CD" fill="none" stroke-width="6.0" stroke-dasharray="" stroke-dashoffset="0.0" stroke-linecap="round"></path></g>
<g transform="matrix(1.0, 0.0, 0.0, 1.0, 0.0, 0.0)"><path d="M 934.0,493.45001220703125 L 934.0,493.45001220703125 C 860.0,493.45001220703125 823.0,262.45001220703125 750.0,262.45001220703125 L 670.0,262.45001220703125 " stroke="#72C8FF" fill="none" stroke-width="6.0" stroke-dasharray="" stroke-dashoffset="0.0" stroke-linecap="round"></path></g>
<g transform="matrix(1.0, 0.0, 0.0, 1.0, 0.0, 0.0)"><path d="M 934.0,493.45001220703125 L 934.0,493.45001220703125 C 1007.0,493.45001220703125 1044.0,256.45001220703125 1117.0,256.45001220703125 L 1185.0,256.45001220703125 " stroke="#FF9559" fill="none" stroke-width="6.0" stroke-dasharray="" stroke-dashoffset="0.0" stroke-linecap="round"></path></g>
<g transform="matrix(1.0, 0.0, 0.0, 1.0, 0.0, 0.0)"><path d="M 934.0,493.45001220703125 L 934.0,493.45001220703125 C 1007.0,493.45001220703125 1044.0,731.4500122070312 1117.0,731.4500122070312 L 1196.0,731.4500122070312 " stroke="#AF4FC8" fill="none" stroke-width="6.0" stroke-dasharray="" stroke-dashoffset="0.0" stroke-linecap="round"></path></g>
<g transform="matrix(1.0, 0.0, 0.0, 1.0, 0.0, 0.0)"><path d="M 934.0,493.45001220703125 L 934.0,493.45001220703125 C 1007.0,493.45001220703125 1044.0,651.4500122070312 1117.0,651.4500122070312 L 1288.0,651.4500122070312 " stroke="#FFCD3B" fill="none" stroke-width="6.0" stroke-dasharray="" stroke-dashoffset="0.0" stroke-linecap="round"></path></g>
<g transform="matrix(1.0, 0.0, 0.0, 1.0, 0.0, 0.0)"><path d="M 934.0,493.45001220703125 L 934.0,493.45001220703125 C 1007.0,493.45001220703125 1044.0,570.4500122070312 1117.0,570.4500122070312 L 1238.0,570.4500122070312 " stroke="#AF4FC8" fill="none" stroke-width="6.0" stroke-dasharray="" stroke-dashoffset="0.0" stroke-linecap="round"></path></g>
<g transform="matrix(1.0, 0.0, 0.0, 1.0, 0.0, 0.0)"><path d="M 670.0,262.45001220703125 L 670.0,262.45001220703125 C 646.0,262.45001220703125 634.0,80.45001220703125 610.0,80.45001220703125 L 542.0,80.45001220703125 " stroke="#72C8FF" fill="none" stroke-width="5.0" stroke-dasharray="" stroke-dashoffset="0.0" stroke-linecap="round"></path></g>
<g transform="matrix(1.0, 0.0, 0.0, 1.0, 0.0, 0.0)"><path d="M 670.0,262.45001220703125 L 670.0,262.45001220703125 C 646.0,262.45001220703125 634.0,444.45001220703125 610.0,444.45001220703125 L 557.0,444.45001220703125 " stroke="#72C8FF" fill="none" stroke-width="5.0" stroke-dasharray="" stroke-dashoffset="0.0" stroke-linecap="round"></path></g>
<g transform="matrix(1.0, 0.0, 0.0, 1.0, 0.0, 0.0)"><path d="M 934.0,493.45001220703125 L 934.0,493.45001220703125 C 1007.0,493.45001220703125 1044.0,466.45001220703125 1117.0,466.45001220703125 L 1217.0,466.45001220703125 " stroke="#72C8FF" fill="none" stroke-width="6.0" stroke-dasharray="" stroke-dashoffset="0.0" stroke-linecap="round"></path></g>
<g transform="matrix(1.0, 0.0, 0.0, 1.0, 0.0, 0.0)"><path d="M 655.0,725.4500122070312 L 655.0,725.4500122070312 C 631.0,725.4500122070312 619.0,602.4500122070312 595.0,602.4500122070312 L 383.0,602.4500122070312 " stroke="#64C8CD" fill="none" stroke-width="5.0" stroke-dasharray="" stroke-dashoffset="0.0" stroke-linecap="round"></path></g>
<g transform="matrix(1.0, 0.0, 0.0, 1.0, 0.0, 0.0)"><path d="M 655.0,725.4500122070312 L 655.0,725.4500122070312 C 631.0,725.4500122070312 619.0,849.4500122070312 595.0,849.4500122070312 L 536.0,849.4500122070312 " stroke="#64C8CD" fill="none" stroke-width="5.0" stroke-dasharray="" stroke-dashoffset="0.0" stroke-linecap="round"></path></g>
<g transform="matrix(1.0, 0.0, 0.0, 1.0, 0.0, 0.0)"><path d="M 383.0,602.4500122070312 L 383.0,602.4500122070312 C 359.0,602.4500122070312 347.0,498.45001220703125 323.0,498.45001220703125 L 275.0,498.45001220703125 " stroke="#64C8CD" fill="none" stroke-width="4.0" stroke-dasharray="" stroke-dashoffset="0.0" stroke-linecap="round"></path></g>
<g transform="matrix(1.0, 0.0, 0.0, 1.0, 0.0, 0.0)"><path d="M 383.0,602.4500122070312 L 383.0,602.4500122070312 C 359.0,602.4500122070312 347.0,706.4500122070312 323.0,706.4500122070312 L 211.0,706.4500122070312 " stroke="#64C8CD" fill="none" stroke-width="4.0" stroke-dasharray="" stroke-dashoffset="0.0" stroke-linecap="round"></path></g>
<g transform="matrix(1.0, 0.0, 0.0, 1.0, 0.0, 0.0)"><path d="M 670.0,262.45001220703125 L 670.0,262.45001220703125 C 646.0,262.45001220703125 634.0,340.45001220703125 610.0,340.45001220703125 L 499.0,340.45001220703125 " stroke="#72C8FF" fill="none" stroke-width="5.0" stroke-dasharray="" stroke-dashoffset="0.0" stroke-linecap="round"></path></g>
<g transform="matrix(1.0, 0.0, 0.0, 1.0, 0.0, 0.0)"><path d="M 1185.0,256.45001220703125 L 1185.0,256.45001220703125 C 1209.0,256.45001220703125 1221.0,178.45001220703125 1245.0,178.45001220703125 L 1331.0,178.45001220703125 " stroke="#FF9559" fill="none" stroke-width="5.0" stroke-dasharray="" stroke-dashoffset="0.0" stroke-linecap="round"></path></g>
<g transform="matrix(1.0, 0.0, 0.0, 1.0, 0.0, 0.0)"><path d="M 1185.0,256.45001220703125 L 1185.0,256.45001220703125 C 1209.0,256.45001220703125 1221.0,334.45001220703125 1245.0,334.45001220703125 L 1341.0,334.45001220703125 " stroke="#FF9559" fill="none" stroke-width="5.0" stroke-dasharray="" stroke-dashoffset="0.0" stroke-linecap="round"></path></g>
<g transform="matrix(1.0, 0.0, 0.0, 1.0, 0.0, 0.0)"><path d="M 536.0,849.4500122070312 L 536.0,849.4500122070312 C 512.0,849.4500122070312 500.0,784.4500122070312 476.0,784.4500122070312 L 373.0,784.4500122070312 " stroke="#64C8CD" fill="none" stroke-width="4.0" stroke-dasharray="" stroke-dashoffset="0.0" stroke-linecap="round"></path></g>
<g transform="matrix(1.0, 0.0, 0.0, 1.0, 0.0, 0.0)"><path d="M 536.0,849.4500122070312 L 536.0,849.4500122070312 C 512.0,849.4500122070312 500.0,914.4500122070312 476.0,914.4500122070312 L 364.0,914.4500122070312 " stroke="#64C8CD" fill="none" stroke-width="4.0" stroke-dasharray="" stroke-dashoffset="0.0" stroke-linecap="round"></path></g>
<g transform="matrix(1.0, 0.0, 0.0, 1.0, 0.0, 0.0)"><path d="M 542.0,80.45001220703125 L 542.0,80.45001220703125 C 518.0,80.45001220703125 506.0,28.45001220703125 482.0,28.45001220703125 L 364.0,28.45001220703125 " stroke="#72C8FF" fill="none" stroke-width="4.0" stroke-dasharray="" stroke-dashoffset="0.0" stroke-linecap="round"></path></g>
<g transform="matrix(1.0, 0.0, 0.0, 1.0, 0.0, 0.0)"><path d="M 383.0,602.4500122070312 L 383.0,602.4500122070312 C 359.0,602.4500122070312 347.0,550.4500122070312 323.0,550.4500122070312 L 211.0,550.4500122070312 " stroke="#64C8CD" fill="none" stroke-width="4.0" stroke-dasharray="" stroke-dashoffset="0.0" stroke-linecap="round"></path></g>
<g transform="matrix(1.0, 0.0, 0.0, 1.0, 0.0, 0.0)"><path d="M 383.0,602.4500122070312 L 383.0,602.4500122070312 C 359.0,602.4500122070312 347.0,654.4500122070312 323.0,654.4500122070312 L 253.0,654.4500122070312 " stroke="#64C8CD" fill="none" stroke-width="4.0" stroke-dasharray="" stroke-dashoffset="0.0" stroke-linecap="round"></path></g>
<g transform="matrix(1.0, 0.0, 0.0, 1.0, 0.0, 0.0)"><path d="M 542.0,80.45001220703125 L 542.0,80.45001220703125 C 518.0,80.45001220703125 506.0,132.45001220703125 482.0,132.45001220703125 L 402.0,132.45001220703125 " stroke="#72C8FF" fill="none" stroke-width="4.0" stroke-dasharray="" stroke-dashoffset="0.0" stroke-linecap="round"></path></g>
<g transform="matrix(1.0, 0.0, 0.0, 1.0, 0.0, 0.0)"><path d="M 670.0,262.45001220703125 L 670.0,262.45001220703125 C 646.0,262.45001220703125 634.0,210.45001220703125 610.0,210.45001220703125 L 523.0,210.45001220703125 " stroke="#72C8FF" fill="none" stroke-width="5.0" stroke-dasharray="" stroke-dashoffset="0.0" stroke-linecap="round"></path></g>
<g transform="matrix(1.0, 0.0, 0.0, 1.0, 0.0, 0.0)"><path d="M 499.0,340.45001220703125 L 499.0,340.45001220703125 C 475.0,340.45001220703125 463.0,288.45001220703125 439.0,288.45001220703125 L 321.0,288.45001220703125 " stroke="#72C8FF" fill="none" stroke-width="4.0" stroke-dasharray="" stroke-dashoffset="0.0" stroke-linecap="round"></path></g>
<g transform="matrix(1.0, 0.0, 0.0, 1.0, 0.0, 0.0)"><path d="M 499.0,340.45001220703125 L 499.0,340.45001220703125 C 475.0,340.45001220703125 463.0,392.45001220703125 439.0,392.45001220703125 L 261.0,392.45001220703125 " stroke="#72C8FF" fill="none" stroke-width="4.0" stroke-dasharray="" stroke-dashoffset="0.0" stroke-linecap="round"></path></g>
<g transform="matrix(1.0, 0.0, 0.0, 1.0, 0.0, 0.0)"><path d="M 1341.0,334.45001220703125 L 1341.0,334.45001220703125 C 1365.0,334.45001220703125 1377.0,282.45001220703125 1401.0,282.45001220703125 L 1557.0,282.45001220703125 " stroke="#FF9559" fill="none" stroke-width="4.0" stroke-dasharray="" stroke-dashoffset="0.0" stroke-linecap="round"></path></g>
<g transform="matrix(1.0, 0.0, 0.0, 1.0, 0.0, 0.0)"><path d="M 1341.0,334.45001220703125 L 1341.0,334.45001220703125 C 1365.0,334.45001220703125 1377.0,386.45001220703125 1401.0,386.45001220703125 L 1497.0,386.45001220703125 " stroke="#FF9559" fill="none" stroke-width="4.0" stroke-dasharray="" stroke-dashoffset="0.0" stroke-linecap="round"></path></g>
<g transform="matrix(1.0, 0.0, 0.0, 1.0, 0.0, 0.0)"><path d="M 373.0,784.4500122070312 L 373.0,784.4500122070312 C 349.0,784.4500122070312 337.0,758.4500122070312 313.0,758.4500122070312 L 267.0,758.4500122070312 " stroke="#64C8CD" fill="none" stroke-width="3.0" stroke-dasharray="" stroke-dashoffset="0.0" stroke-linecap="round"></path></g>
<g transform="matrix(1.0, 0.0, 0.0, 1.0, 0.0, 0.0)"><path d="M 373.0,784.4500122070312 L 373.0,784.4500122070312 C 349.0,784.4500122070312 337.0,810.4500122070312 313.0,810.4500122070312 L 194.0,810.4500122070312 " stroke="#64C8CD" fill="none" stroke-width="3.0" stroke-dasharray="" stroke-dashoffset="0.0" stroke-linecap="round"></path></g>
<g transform="matrix(1.0, 0.0, 0.0, 1.0, 0.0, 0.0)"><path d="M 523.0,210.45001220703125 L 523.0,210.45001220703125 C 499.0,210.45001220703125 487.0,184.45001220703125 463.0,184.45001220703125 L 345.0,184.45001220703125 " stroke="#72C8FF" fill="none" stroke-width="4.0" stroke-dasharray="" stroke-dashoffset="0.0" stroke-linecap="round"></path></g>
<g transform="matrix(1.0, 0.0, 0.0, 1.0, 0.0, 0.0)"><path d="M 523.0,210.45001220703125 L 523.0,210.45001220703125 C 499.0,210.45001220703125 487.0,236.45001220703125 463.0,236.45001220703125 L 343.0,236.45001220703125 " stroke="#72C8FF" fill="none" stroke-width="4.0" stroke-dasharray="" stroke-dashoffset="0.0" stroke-linecap="round"></path></g>
<g transform="matrix(1.0, 0.0, 0.0, 1.0, 0.0, 0.0)"><path d="M 536.0,849.4500122070312 L 536.0,849.4500122070312 C 512.0,849.4500122070312 500.0,862.4500122070312 476.0,862.4500122070312 L 368.0,862.4500122070312 " stroke="#64C8CD" fill="none" stroke-width="4.0" stroke-dasharray="" stroke-dashoffset="0.0" stroke-linecap="round"></path></g>
<g transform="matrix(1.0, 0.0, 0.0, 1.0, 0.0, 0.0)"><path d="M 1185.0,256.45001220703125 L 1185.0,256.45001220703125 C 1209.0,256.45001220703125 1221.0,230.45001220703125 1245.0,230.45001220703125 L 1328.0,230.45001220703125 " stroke="#FF9559" fill="none" stroke-width="5.0" stroke-dasharray="" stroke-dashoffset="0.0" stroke-linecap="round"></path></g>
<g transform="matrix(1.0, 0.0, 0.0, 1.0, 0.0, 0.0)"><path d="M 1217.0,466.45001220703125 L 1217.0,466.45001220703125 C 1241.0,466.45001220703125 1253.0,440.45001220703125 1277.0,440.45001220703125 L 1329.0,440.45001220703125 " stroke="#72C8FF" fill="none" stroke-width="5.0" stroke-dasharray="" stroke-dashoffset="0.0" stroke-linecap="round"></path></g>
<g transform="matrix(1.0, 0.0, 0.0, 1.0, 0.0, 0.0)"><path d="M 1217.0,466.45001220703125 L 1217.0,466.45001220703125 C 1241.0,466.45001220703125 1253.0,492.45001220703125 1277.0,492.45001220703125 L 1328.0,492.45001220703125 " stroke="#72C8FF" fill="none" stroke-width="5.0" stroke-dasharray="" stroke-dashoffset="0.0" stroke-linecap="round"></path></g>
<g transform="matrix(1.0, 0.0, 0.0, 1.0, 0.0, 0.0)"><path d="M 1288.0,651.4500122070312 L 1288.0,651.4500122070312 C 1312.0,651.4500122070312 1324.0,625.4500122070312 1348.0,625.4500122070312 L 1495.0,625.4500122070312 " stroke="#FFCD3B" fill="none" stroke-width="5.0" stroke-dasharray="" stroke-dashoffset="0.0" stroke-linecap="round"></path></g>
<g transform="matrix(1.0, 0.0, 0.0, 1.0, 0.0, 0.0)"><path d="M 1288.0,651.4500122070312 L 1288.0,651.4500122070312 C 1312.0,651.4500122070312 1324.0,677.4500122070312 1348.0,677.4500122070312 L 1493.0,677.4500122070312 " stroke="#FFCD3B" fill="none" stroke-width="5.0" stroke-dasharray="" stroke-dashoffset="0.0" stroke-linecap="round"></path></g>
<g transform="matrix(1.0, 0.0, 0.0, 1.0, 0.0, 0.0)"><path d="M 383.0,602.4500122070312 L 383.0,602.4500122070312 C 359.0,602.4500122070312 347.0,602.4500122070312 323.0,602.4500122070312 L 175.0,602.4500122070312 " stroke="#64C8CD" fill="none" stroke-width="4.0" stroke-dasharray="" stroke-dashoffset="0.0" stroke-linecap="round"></path></g>
<g transform="matrix(1.0, 0.0, 0.0, 1.0, 0.0, 0.0)"><path d="M 211.0,706.4500122070312 L 211.0,706.4500122070312 C 187.0,706.4500122070312 175.0,706.4500122070312 151.0,706.4500122070312 L 0.0,706.4500122070312 " stroke="#64C8CD" fill="none" stroke-width="3.0" stroke-dasharray="" stroke-dashoffset="0.0" stroke-linecap="round"></path></g>
<g transform="matrix(1.0, 0.0, 0.0, 1.0, 0.0, 0.0)"><path d="M 364.0,914.4500122070312 L 364.0,914.4500122070312 C 340.0,914.4500122070312 328.0,914.4500122070312 304.0,914.4500122070312 L 153.0,914.4500122070312 " stroke="#64C8CD" fill="none" stroke-width="3.0" stroke-dasharray="" stroke-dashoffset="0.0" stroke-linecap="round"></path></g>
<g transform="matrix(1.0, 0.0, 0.0, 1.0, 0.0, 0.0)"><path d="M 542.0,80.45001220703125 L 542.0,80.45001220703125 C 518.0,80.45001220703125 506.0,80.45001220703125 482.0,80.45001220703125 L 362.0,80.45001220703125 " stroke="#72C8FF" fill="none" stroke-width="4.0" stroke-dasharray="" stroke-dashoffset="0.0" stroke-linecap="round"></path></g>
<g transform="matrix(1.0, 0.0, 0.0, 1.0, 0.0, 0.0)"><path d="M 499.0,340.45001220703125 L 499.0,340.45001220703125 C 475.0,340.45001220703125 463.0,340.45001220703125 439.0,340.45001220703125 L 319.0,340.45001220703125 " stroke="#72C8FF" fill="none" stroke-width="4.0" stroke-dasharray="" stroke-dashoffset="0.0" stroke-linecap="round"></path></g>
<g transform="matrix(1.0, 0.0, 0.0, 1.0, 0.0, 0.0)"><path d="M 1331.0,178.45001220703125 L 1331.0,178.45001220703125 C 1355.0,178.45001220703125 1367.0,178.45001220703125 1391.0,178.45001220703125 L 1487.0,178.45001220703125 " stroke="#FF9559" fill="none" stroke-width="4.0" stroke-dasharray="" stroke-dashoffset="0.0" stroke-linecap="round"></path></g>
<g transform="matrix(1.0, 0.0, 0.0, 1.0, 0.0, 0.0)"><path d="M 1341.0,334.45001220703125 L 1341.0,334.45001220703125 C 1365.0,334.45001220703125 1377.0,334.45001220703125 1401.0,334.45001220703125 L 1464.0,334.45001220703125 " stroke="#FF9559" fill="none" stroke-width="4.0" stroke-dasharray="" stroke-dashoffset="0.0" stroke-linecap="round"></path></g>
<g transform="matrix(1.0, 0.0, 0.0, 1.0, 0.0, 0.0)"><path d="M 1238.0,570.4500122070312 L 1238.0,570.4500122070312 C 1262.0,570.4500122070312 1274.0,570.4500122070312 1298.0,570.4500122070312 L 1530.0,570.4500122070312 " stroke="#AF4FC8" fill="none" stroke-width="5.0" stroke-dasharray="" stroke-dashoffset="0.0" stroke-linecap="round"></path></g>
<g transform="matrix(1.0, 0.0, 0.0, 1.0, 0.0, 0.0)"><path d="M 1196.0,731.4500122070312 L 1196.0,731.4500122070312 C 1220.0,731.4500122070312 1232.0,731.4500122070312 1256.0,731.4500122070312 L 1388.0,731.4500122070312 " stroke="#AF4FC8" fill="none" stroke-width="5.0" stroke-dasharray="" stroke-dashoffset="0.0" stroke-linecap="round"></path></g>
<g transform="matrix(1.0, 0.0, 0.0, 1.0, 0.0, 0.0)"><path d="M 1057.0,493.95001220703125 L 1057.0,512.4500122070312 C 1057.0,517.9728597050313 1052.522847498,522.4500122070312 1047.0,522.4500122070312 L 820.0,522.4500122070312 C 814.477152502,522.4500122070312 810.0,517.9728597050313 810.0,512.4500122070312 L 810.0,475.45001220703125 C 810.0,469.9271647090312 814.477152502,465.45001220703125 820.0,465.45001220703125 L 1047.0,465.45001220703125 C 1052.522847498,465.45001220703125 1057.0,469.9271647090312 1057.0,475.45001220703125 Z " stroke="none" fill="#FFFFFF"></path><path d="M 1057.0,493.95001220703125 L 1057.0,512.4500122070312 C 1057.0,517.9728597050313 1052.522847498,522.4500122070312 1047.0,522.4500122070312 L 820.0,522.4500122070312 C 814.477152502,522.4500122070312 810.0,517.9728597050313 810.0,512.4500122070312 L 810.0,475.45001220703125 C 810.0,469.9271647090312 814.477152502,465.45001220703125 820.0,465.45001220703125 L 1047.0,465.45001220703125 C 1052.522847498,465.45001220703125 1057.0,469.9271647090312 1057.0,475.45001220703125 Z " stroke="#FFFFFF" fill="none" stroke-width="7.0" stroke-dasharray="" stroke-dashoffset="0.0" stroke-linecap="round" stroke-linejoin="round"></path></g>
<g transform="matrix(1.0, 0.0, 0.0, 1.0, 0.0, 0.0)"><g transform="translate(829.0 502.45001220703125)"><text fill="#6D6D6D" x="5.431640625" y="0.0" font-family="Helvetica" font-size="24.0">sequence message</text></g></g>
<g transform="matrix(1.0, 0.0, 0.0, 1.0, 0.0, 0.0)"><g transform="translate(1124.0 249.45001220703125)"><text fill="#6D6D6D" x="5.0" y="0.0" font-family="Helvetica" font-size="20.0">states</text></g></g>
<g transform="matrix(1.0, 0.0, 0.0, 1.0, 0.0, 0.0)"><g transform="translate(1252.0 171.45001220703125)"><text fill="#6D6D6D" x="5.0" y="0.0" font-family="Helvetica" font-size="20.0">pending</text></g></g>
<g transform="matrix(1.0, 0.0, 0.0, 1.0, 0.0, 0.0)"><g transform="translate(1398.0 171.45001220703125)"><text fill="#6D6D6D" x="5.0" y="0.0" font-family="Helvetica" font-size="20.0">feedback</text></g></g>
<g transform="matrix(1.0, 0.0, 0.0, 1.0, 0.0, 0.0)"><g transform="translate(1252.0 223.45001220703125)"><text fill="#6D6D6D" x="5.0" y="0.0" font-family="Helvetica" font-size="20.0">skipped</text></g></g>
<g transform="matrix(1.0, 0.0, 0.0, 1.0, 0.0, 0.0)"><g transform="translate(1252.0 327.45001220703125)"><text fill="#6D6D6D" x="5.0" y="0.0" font-family="Helvetica" font-size="20.0">complete</text></g></g>
<g transform="matrix(1.0, 0.0, 0.0, 1.0, 0.0, 0.0)"><g transform="translate(1408.0 275.45001220703125)"><text fill="#6D6D6D" x="5.0" y="0.0" font-family="Helvetica" font-size="20.0">completed_time</text></g></g>
<g transform="matrix(1.0, 0.0, 0.0, 1.0, 0.0, 0.0)"><g transform="translate(1408.0 327.45001220703125)"><text fill="#6D6D6D" x="5.0" y="0.0" font-family="Helvetica" font-size="20.0">result</text></g></g>
<g transform="matrix(1.0, 0.0, 0.0, 1.0, 0.0, 0.0)"><g transform="translate(1408.0 379.45001220703125)"><text fill="#6D6D6D" x="5.0" y="0.0" font-family="Helvetica" font-size="20.0">feedback</text></g></g>
<g transform="matrix(1.0, 0.0, 0.0, 1.0, 0.0, 0.0)"><g transform="translate(1124.0 459.45001220703125)"><text fill="#6D6D6D" x="5.0" y="0.0" font-family="Helvetica" font-size="20.0">estimates</text></g></g>
<g transform="matrix(1.0, 0.0, 0.0, 1.0, 0.0, 0.0)"><g transform="translate(1284.0 433.45001220703125)"><text fill="#6D6D6D" x="5.0" y="0.0" font-family="Helvetica" font-size="20.0">time</text></g></g>
<g transform="matrix(1.0, 0.0, 0.0, 1.0, 0.0, 0.0)"><g transform="translate(1284.0 485.45001220703125)"><text fill="#6D6D6D" x="5.0" y="0.0" font-family="Helvetica" font-size="20.0">cost</text></g></g>
<g transform="matrix(1.0, 0.0, 0.0, 1.0, 0.0, 0.0)"><g transform="translate(1124.0 563.4500122070312)"><text fill="#6D6D6D" x="5.0" y="0.0" font-family="Helvetica" font-size="20.0">optimization</text></g></g>
<g transform="matrix(1.0, 0.0, 0.0, 1.0, 0.0, 0.0)"><g transform="translate(1305.0 539.4500122070312)"><text fill="#6D6D6D" x="5.0" y="0.0" font-family="Helvetica" font-size="20.0">context_score (can it be </text><text fill="#6D6D6D" x="5.0" y="24.0" font-family="Helvetica" font-size="20.0">outsourced)</text></g></g>
<g transform="matrix(1.0, 0.0, 0.0, 1.0, 0.0, 0.0)"><g transform="translate(1124.0 644.4500122070312)"><text fill="#6D6D6D" x="5.0" y="0.0" font-family="Helvetica" font-size="20.0">message_context</text></g></g>
<g transform="matrix(1.0, 0.0, 0.0, 1.0, 0.0, 0.0)"><g transform="translate(1355.0 618.4500122070312)"><text fill="#6D6D6D" x="5.0" y="0.0" font-family="Helvetica" font-size="20.0">prior_message</text></g></g>
<g transform="matrix(1.0, 0.0, 0.0, 1.0, 0.0, 0.0)"><g transform="translate(1355.0 670.4500122070312)"><text fill="#6D6D6D" x="5.0" y="0.0" font-family="Helvetica" font-size="20.0">next_message</text></g></g>
<g transform="matrix(1.0, 0.0, 0.0, 1.0, 0.0, 0.0)"><g transform="translate(1124.0 724.4500122070312)"><text fill="#6D6D6D" x="5.0" y="0.0" font-family="Helvetica" font-size="20.0">metrics</text></g></g>
<g transform="matrix(1.0, 0.0, 0.0, 1.0, 0.0, 0.0)"><g transform="translate(1263.0 724.4500122070312)"><text fill="#6D6D6D" x="5.0" y="0.0" font-family="Helvetica" font-size="20.0">message_kpi</text></g></g>
<g transform="matrix(1.0, 0.0, 0.0, 1.0, 0.0, 0.0)"><g transform="translate(662.0 718.4500122070312)"><text fill="#6D6D6D" x="5.0" y="0.0" font-family="Helvetica" font-size="20.0">assignee</text></g></g>
<g transform="matrix(1.0, 0.0, 0.0, 1.0, 0.0, 0.0)"><g transform="translate(390.0 595.4500122070312)"><text fill="#6D6D6D" x="5.0" y="0.0" font-family="Helvetica" font-size="20.0">person_demographics</text></g></g>
<g transform="matrix(1.0, 0.0, 0.0, 1.0, 0.0, 0.0)"><g transform="translate(282.0 491.45001220703125)"><text fill="#6D6D6D" x="5.0" y="0.0" font-family="Helvetica" font-size="20.0">age</text></g></g>
<g transform="matrix(1.0, 0.0, 0.0, 1.0, 0.0, 0.0)"><g transform="translate(218.0 543.4500122070312)"><text fill="#6D6D6D" x="5.0" y="0.0" font-family="Helvetica" font-size="20.0">experience</text></g></g>
<g transform="matrix(1.0, 0.0, 0.0, 1.0, 0.0, 0.0)"><g transform="translate(182.0 595.4500122070312)"><text fill="#6D6D6D" x="5.0" y="0.0" font-family="Helvetica" font-size="20.0">education level</text></g></g>
<g transform="matrix(1.0, 0.0, 0.0, 1.0, 0.0, 0.0)"><g transform="translate(260.0 647.4500122070312)"><text fill="#6D6D6D" x="5.0" y="0.0" font-family="Helvetica" font-size="20.0">region</text></g></g>
<g transform="matrix(1.0, 0.0, 0.0, 1.0, 0.0, 0.0)"><g transform="translate(218.0 699.4500122070312)"><text fill="#6D6D6D" x="5.0" y="0.0" font-family="Helvetica" font-size="20.0">experience</text></g></g>
<g transform="matrix(1.0, 0.0, 0.0, 1.0, 0.0, 0.0)"><g transform="translate(7.0 699.4500122070312)"><text fill="#6D6D6D" x="5.0" y="0.0" font-family="Helvetica" font-size="20.0">sequences_run</text></g></g>
<g transform="matrix(1.0, 0.0, 0.0, 1.0, 0.0, 0.0)"><g transform="translate(543.0 842.4500122070312)"><text fill="#6D6D6D" x="5.0" y="0.0" font-family="Helvetica" font-size="20.0">team</text></g></g>
<g transform="matrix(1.0, 0.0, 0.0, 1.0, 0.0, 0.0)"><g transform="translate(380.0 777.4500122070312)"><text fill="#6D6D6D" x="5.0" y="0.0" font-family="Helvetica" font-size="20.0">team_role</text></g></g>
<g transform="matrix(1.0, 0.0, 0.0, 1.0, 0.0, 0.0)"><g transform="translate(274.0 751.4500122070312)"><text fill="#6D6D6D" x="5.0" y="0.0" font-family="Helvetica" font-size="20.0">title</text></g></g>
<g transform="matrix(1.0, 0.0, 0.0, 1.0, 0.0, 0.0)"><g transform="translate(201.0 803.4500122070312)"><text fill="#6D6D6D" x="5.0" y="0.0" font-family="Helvetica" font-size="20.0">background</text></g></g>
<g transform="matrix(1.0, 0.0, 0.0, 1.0, 0.0, 0.0)"><g transform="translate(375.0 855.4500122070312)"><text fill="#6D6D6D" x="5.0" y="0.0" font-family="Helvetica" font-size="20.0">team_goal</text></g></g>
<g transform="matrix(1.0, 0.0, 0.0, 1.0, 0.0, 0.0)"><g transform="translate(371.0 907.4500122070312)"><text fill="#6D6D6D" x="5.0" y="0.0" font-family="Helvetica" font-size="20.0">experience</text></g></g>
<g transform="matrix(1.0, 0.0, 0.0, 1.0, 0.0, 0.0)"><g transform="translate(160.0 907.4500122070312)"><text fill="#6D6D6D" x="5.0" y="0.0" font-family="Helvetica" font-size="20.0">sequences_run</text></g></g>
<g transform="matrix(1.0, 0.0, 0.0, 1.0, 0.0, 0.0)"><g transform="translate(677.0 255.45001220703125)"><text fill="#6D6D6D" x="5.0" y="0.0" font-family="Helvetica" font-size="20.0">content</text></g></g>
<g transform="matrix(1.0, 0.0, 0.0, 1.0, 0.0, 0.0)"><g transform="translate(549.0 73.45001220703125)"><text fill="#6D6D6D" x="5.0" y="0.0" font-family="Helvetica" font-size="20.0">action</text></g></g>
<g transform="matrix(1.0, 0.0, 0.0, 1.0, 0.0, 0.0)"><g transform="translate(371.0 21.45001220703125)"><text fill="#6D6D6D" x="5.0" y="0.0" font-family="Helvetica" font-size="20.0">max_length</text></g></g>
<g transform="matrix(1.0, 0.0, 0.0, 1.0, 0.0, 0.0)"><g transform="translate(369.0 73.45001220703125)"><text fill="#6D6D6D" x="5.0" y="0.0" font-family="Helvetica" font-size="20.0">references[]</text></g></g>
<g transform="matrix(1.0, 0.0, 0.0, 1.0, 0.0, 0.0)"><g transform="translate(409.0 125.45001220703125)"><text fill="#6D6D6D" x="5.0" y="0.0" font-family="Helvetica" font-size="20.0">content</text></g></g>
<g transform="matrix(1.0, 0.0, 0.0, 1.0, 0.0, 0.0)"><g transform="translate(530.0 203.45001220703125)"><text fill="#6D6D6D" x="5.0" y="0.0" font-family="Helvetica" font-size="20.0">purpose</text></g></g>
<g transform="matrix(1.0, 0.0, 0.0, 1.0, 0.0, 0.0)"><g transform="translate(352.0 177.45001220703125)"><text fill="#6D6D6D" x="5.0" y="0.0" font-family="Helvetica" font-size="20.0">max_length</text></g></g>
<g transform="matrix(1.0, 0.0, 0.0, 1.0, 0.0, 0.0)"><g transform="translate(350.0 229.45001220703125)"><text fill="#6D6D6D" x="5.0" y="0.0" font-family="Helvetica" font-size="20.0">references[]</text></g></g>
<g transform="matrix(1.0, 0.0, 0.0, 1.0, 0.0, 0.0)"><g transform="translate(506.0 333.45001220703125)"><text fill="#6D6D6D" x="5.0" y="0.0" font-family="Helvetica" font-size="20.0">deliverable</text></g></g>
<g transform="matrix(1.0, 0.0, 0.0, 1.0, 0.0, 0.0)"><g transform="translate(328.0 281.45001220703125)"><text fill="#6D6D6D" x="5.0" y="0.0" font-family="Helvetica" font-size="20.0">max_length</text></g></g>
<g transform="matrix(1.0, 0.0, 0.0, 1.0, 0.0, 0.0)"><g transform="translate(326.0 333.45001220703125)"><text fill="#6D6D6D" x="5.0" y="0.0" font-family="Helvetica" font-size="20.0">references[]</text></g></g>
<g transform="matrix(1.0, 0.0, 0.0, 1.0, 0.0, 0.0)"><g transform="translate(268.0 385.45001220703125)"><text fill="#6D6D6D" x="5.0" y="0.0" font-family="Helvetica" font-size="20.0">definition_of_done</text></g></g>
<g transform="matrix(1.0, 0.0, 0.0, 1.0, 0.0, 0.0)"><g transform="translate(564.0 437.45001220703125)"><text fill="#6D6D6D" x="5.0" y="0.0" font-family="Helvetica" font-size="20.0">tone</text></g></g>
<g transform="matrix(1.0, 0.0, 0.0, 1.0, 0.0, 0.0)"></g>
</svg>